<?xml version="1.0" encoding="UTF-8" standalone="no"?><!DOCTYPE svg PUBLIC "-//W3C//DTD SVG 1.1//EN" "http://www.w3.org/Graphics/SVG/1.1/DTD/svg11.dtd"><svg width="100%" height="100%" viewBox="0 0 168 48" version="1.1" xmlns="http://www.w3.org/2000/svg" xmlns:xlink="http://www.w3.org/1999/xlink" xml:space="preserve" xmlns:serif="http://www.serif.com/" style="fill-rule:evenodd;clip-rule:evenodd;stroke-linecap:round;stroke-linejoin:round;stroke-miterlimit:1.5;"><g><g><path d="M26.352,26.487l40.207,0l0.174,-5.724l-26.857,0.088l0,-11.943l-13.423,0.014l-0.101,17.565Z" style="stroke:#000;stroke-width:0.24px;"/><path d="M141.648,26.487l-40.203,0l-0.174,-5.724l26.854,0.088l0,-11.943l13.421,0.014l0.101,17.565Z" style="stroke:#000;stroke-width:0.24px;"/><path d="M97.371,8.794l-40.205,0.34l-0.125,5.725l26.855,-0.315l0.101,11.943l13.422,-0.128l-0.048,-17.565Z" style="stroke:#000;stroke-width:0.24px;"/><path d="M141.6,8.695l-40.205,0.34l-0.125,5.725l26.855,-0.315l0.101,11.943l13.422,-0.128l-0.048,-17.565Z" style="stroke:#000;stroke-width:0.24px;"/></g><g transform="matrix(12.422595,0,0,12.422595,140.084147,36.463046)"></g><text x="26.352px" y="36.463px" style="font-family:'AkiraExpanded-SuperBold', 'Akira Expanded';font-weight:800;font-size:12.423px;">vi<tspan x="43.591px 55.668px " y="36.463px 36.463px ">de</tspan>og<tspan x="89.448px 102.216px 118.381px 128.778px " y="36.463px 36.463px 36.463px 36.463px ">ames</tspan></text></g></svg>